<svg id="svg" version="1.1" xmlns="http://www.w3.org/2000/svg" xmlns:xlink="http://www.w3.org/1999/xlink" width="400" height="400" viewBox="0, 0, 400,400"><g id="svgg"><path id="path0" d="M0.000 200.000 L 0.000 400.000 200.000 400.000 L 400.000 400.000 400.000 200.000 L 400.000 0.000 200.000 0.000 L 0.000 0.000 0.000 200.000 M337.300 22.189 C 339.341 22.768,341.932 23.492,343.058 23.798 C 356.213 27.375,371.739 43.888,374.641 57.389 C 376.165 64.475,376.037 52.775,376.135 193.730 C 376.232 333.720,376.245 332.242,374.886 337.901 C 371.728 351.062,362.551 363.472,351.504 369.524 C 348.030 371.427,346.485 372.205,345.275 372.664 C 344.524 372.949,343.603 373.342,343.228 373.538 C 342.853 373.733,342.419 373.894,342.263 373.895 C 342.107 373.896,340.775 374.242,339.302 374.664 C 337.828 375.086,334.674 375.745,332.291 376.127 L 327.959 376.821 215.867 376.842 C 84.739 376.866,74.705 376.807,69.354 375.977 C 53.875 373.577,41.030 365.151,32.435 351.759 C 30.762 349.153,27.997 342.984,27.503 340.755 C 27.409 340.333,27.112 339.375,26.843 338.627 C 26.161 336.729,25.964 335.735,25.289 330.774 L 24.696 326.424 24.696 199.104 L 24.696 71.785 25.412 65.771 C 25.897 61.697,26.372 58.899,26.884 57.097 C 27.299 55.634,27.639 54.308,27.639 54.150 C 27.639 53.992,27.852 53.462,28.113 52.971 C 28.373 52.481,28.792 51.446,29.042 50.672 C 29.293 49.898,29.654 48.976,29.846 48.624 C 30.038 48.273,30.425 47.466,30.706 46.833 C 30.987 46.200,31.673 44.990,32.230 44.146 C 32.787 43.301,33.482 42.207,33.775 41.715 C 39.374 32.298,53.890 23.190,66.539 21.156 C 66.891 21.099,127.121 21.072,200.384 21.095 L 333.589 21.138 337.300 22.189 M87.396 72.319 C 87.115 72.388,85.848 72.683,84.581 72.977 C 77.508 74.614,74.982 78.767,74.986 88.752 C 74.989 96.368,75.599 98.617,78.554 101.906 C 83.098 106.964,93.144 107.421,100.576 102.907 C 101.209 102.522,102.303 101.927,103.007 101.584 L 104.287 100.960 145.439 100.892 C 190.260 100.818,187.943 100.739,188.868 102.382 L 189.507 103.519 189.508 119.514 C 189.509 128.311,189.598 135.646,189.706 135.813 C 190.106 136.433,189.569 138.276,188.719 139.203 L 187.883 140.115 146.085 140.115 C 98.249 140.115,103.661 140.421,100.587 137.542 C 97.253 134.419,94.896 133.594,89.315 133.593 C 83.084 133.592,79.528 135.204,76.609 139.353 C 73.548 143.704,73.379 159.174,76.345 163.640 C 79.683 168.667,82.666 170.057,90.083 170.042 C 95.865 170.029,97.174 169.778,99.348 168.263 C 102.898 165.788,103.700 165.314,104.739 165.074 C 105.983 164.787,185.831 164.733,187.435 165.018 C 189.621 165.407,189.421 157.494,189.331 239.969 C 189.287 280.059,189.260 314.530,189.270 316.571 C 189.298 322.117,189.976 323.331,194.114 325.246 C 199.073 327.541,206.981 328.340,212.668 327.120 C 214.005 326.833,216.243 326.462,217.641 326.296 C 219.039 326.130,220.882 325.784,221.736 325.527 C 222.590 325.270,223.692 324.985,224.184 324.892 C 224.677 324.800,225.944 324.449,226.999 324.113 C 228.055 323.776,229.610 323.333,230.454 323.127 C 231.299 322.921,233.314 322.277,234.933 321.695 C 236.552 321.114,238.797 320.312,239.923 319.913 C 242.999 318.825,245.432 317.881,246.594 317.325 C 247.166 317.051,247.715 316.827,247.813 316.827 C 248.083 316.827,254.872 313.628,259.501 311.319 C 263.248 309.451,265.369 308.312,268.012 306.751 C 269.172 306.065,270.813 305.098,271.657 304.601 C 272.502 304.104,273.423 303.505,273.704 303.269 C 273.986 303.033,275.656 301.930,277.415 300.818 C 280.957 298.579,282.661 297.343,290.700 291.188 C 292.922 289.488,303.089 279.146,305.699 275.933 C 309.413 271.360,309.738 270.927,311.885 267.690 C 316.393 260.894,320.083 254.247,321.864 249.713 C 322.100 249.115,322.438 248.394,322.617 248.113 C 322.796 247.831,323.229 246.795,323.579 245.809 C 323.930 244.824,324.579 243.039,325.021 241.843 C 325.774 239.810,326.088 238.873,327.679 233.909 C 330.282 225.791,331.140 215.992,329.685 211.004 C 328.442 206.748,326.499 202.576,324.894 200.719 L 324.051 199.744 321.903 199.744 C 319.599 199.744,318.595 200.081,314.062 202.379 C 310.121 204.377,307.827 207.679,306.969 212.589 C 306.752 213.829,306.113 216.398,305.548 218.298 C 304.984 220.198,304.286 222.617,303.998 223.672 C 303.710 224.728,303.197 226.200,302.857 226.943 C 302.517 227.686,302.239 228.424,302.239 228.582 C 302.239 228.740,301.910 229.571,301.508 230.429 C 301.105 231.288,300.636 232.420,300.465 232.946 C 300.294 233.472,300.056 233.963,299.936 234.037 C 299.816 234.111,299.577 234.602,299.406 235.128 C 298.758 237.115,291.859 249.070,289.757 251.849 C 288.856 253.039,285.693 257.180,284.301 258.989 C 279.515 265.213,268.770 274.642,260.679 279.718 C 259.445 280.493,257.668 281.622,256.729 282.227 C 255.184 283.224,249.685 286.016,245.042 288.162 C 244.056 288.617,242.316 289.437,241.174 289.984 C 240.032 290.531,239.028 290.979,238.942 290.979 C 238.857 290.979,238.179 291.254,237.436 291.591 C 235.312 292.552,232.110 293.809,230.710 294.231 C 230.006 294.443,229.200 294.745,228.919 294.902 C 228.214 295.296,223.936 296.753,221.704 297.360 C 220.692 297.635,219.493 298.052,219.039 298.286 C 217.764 298.946,215.431 299.082,214.968 298.524 C 214.148 297.537,214.664 273.998,215.708 264.747 C 215.994 262.214,216.357 258.874,216.515 257.326 C 216.672 255.777,216.960 253.877,217.153 253.103 C 217.347 252.329,217.627 250.889,217.776 249.904 C 218.089 247.833,219.362 242.386,220.228 239.411 C 220.557 238.285,221.001 236.615,221.216 235.701 C 221.431 234.786,222.022 232.828,222.529 231.350 C 223.036 229.872,223.720 227.836,224.048 226.826 C 224.376 225.816,224.822 224.665,225.039 224.267 C 225.255 223.870,225.969 222.393,226.625 220.985 C 228.536 216.882,231.071 211.887,232.016 210.365 C 232.496 209.591,233.199 208.439,233.578 207.806 C 234.827 205.720,241.535 196.597,242.610 195.521 C 242.681 195.451,243.372 194.707,244.146 193.869 C 247.003 190.774,253.058 185.103,255.412 183.316 C 256.746 182.304,258.458 180.998,259.217 180.414 C 261.543 178.623,264.915 176.419,268.678 174.229 C 272.979 171.725,282.964 167.207,286.372 166.223 C 286.724 166.121,287.473 165.831,288.036 165.579 C 288.599 165.326,290.614 164.637,292.514 164.048 C 294.415 163.459,296.545 162.762,297.249 162.500 C 297.953 162.237,299.272 161.835,300.181 161.605 C 301.089 161.375,302.141 161.028,302.517 160.833 C 302.893 160.639,303.992 160.253,304.959 159.975 C 315.172 157.043,325.167 146.786,326.682 137.684 C 326.787 137.051,327.150 135.611,327.488 134.485 C 329.172 128.879,329.058 103.850,327.324 98.502 C 326.899 97.191,326.552 96.014,326.552 95.886 C 326.552 95.759,326.104 94.646,325.557 93.414 C 322.132 85.697,314.822 79.948,304.287 76.685 C 303.653 76.489,274.200 76.368,203.583 76.272 L 103.775 76.136 102.239 75.415 C 101.395 75.019,100.273 74.474,99.745 74.204 C 97.226 72.915,89.683 71.764,87.396 72.319 M294.858 101.760 C 301.845 104.017,303.456 106.317,303.858 114.617 C 304.656 131.069,301.801 134.670,283.941 139.730 C 282.393 140.169,280.435 140.758,279.591 141.039 C 278.746 141.320,277.191 141.824,276.136 142.160 C 270.272 144.025,262.002 147.599,259.245 149.459 C 258.893 149.696,257.626 150.431,256.430 151.092 C 254.242 152.300,252.198 153.586,250.376 154.900 C 249.835 155.290,248.929 155.923,248.363 156.307 C 238.953 162.696,222.822 179.177,217.658 187.680 C 217.377 188.143,216.729 189.022,216.218 189.633 L 215.290 190.743 214.959 190.125 C 214.423 189.123,214.594 102.987,215.134 102.155 C 216.026 100.782,214.173 100.840,254.766 100.903 L 292.386 100.962 294.858 101.760 " stroke="none" fill="#fcfbfa" fill-rule="evenodd"></path><path id="path1" d="M66.539 21.156 C 53.890 23.190,39.374 32.298,33.775 41.715 C 33.482 42.207,32.787 43.301,32.230 44.146 C 31.673 44.990,30.987 46.200,30.706 46.833 C 30.425 47.466,30.038 48.273,29.846 48.624 C 29.654 48.976,29.293 49.898,29.042 50.672 C 28.792 51.446,28.373 52.481,28.113 52.971 C 27.852 53.462,27.639 53.992,27.639 54.150 C 27.639 54.308,27.299 55.634,26.884 57.097 C 26.372 58.899,25.897 61.697,25.412 65.771 L 24.696 71.785 24.696 199.104 L 24.696 326.424 25.289 330.774 C 25.964 335.735,26.161 336.729,26.843 338.627 C 27.112 339.375,27.409 340.333,27.503 340.755 C 27.997 342.984,30.762 349.153,32.435 351.759 C 41.030 365.151,53.875 373.577,69.354 375.977 C 74.705 376.807,84.739 376.866,215.867 376.842 L 327.959 376.821 332.291 376.127 C 334.674 375.745,337.828 375.086,339.302 374.664 C 340.775 374.242,342.107 373.896,342.263 373.895 C 342.419 373.894,342.853 373.733,343.228 373.538 C 343.603 373.342,344.524 372.949,345.275 372.664 C 346.485 372.205,348.030 371.427,351.504 369.524 C 362.551 363.472,371.728 351.062,374.886 337.901 C 376.245 332.242,376.232 333.720,376.135 193.730 C 376.037 52.775,376.165 64.475,374.641 57.389 C 371.739 43.888,356.213 27.375,343.058 23.798 C 341.932 23.492,339.341 22.768,337.300 22.189 L 333.589 21.138 200.384 21.095 C 127.121 21.072,66.891 21.099,66.539 21.156 M96.163 73.041 C 97.606 73.411,99.218 73.935,99.745 74.204 C 100.273 74.474,101.395 75.019,102.239 75.415 L 103.775 76.136 203.583 76.272 C 274.200 76.368,303.653 76.489,304.287 76.685 C 314.822 79.948,322.132 85.697,325.557 93.414 C 326.104 94.646,326.552 95.759,326.552 95.886 C 326.552 96.014,326.899 97.191,327.324 98.502 C 329.058 103.850,329.172 128.879,327.488 134.485 C 327.150 135.611,326.787 137.051,326.682 137.684 C 325.167 146.786,315.172 157.043,304.959 159.975 C 303.992 160.253,302.893 160.639,302.517 160.833 C 302.141 161.028,301.089 161.375,300.181 161.605 C 299.272 161.835,297.953 162.237,297.249 162.500 C 296.545 162.762,294.415 163.459,292.514 164.048 C 290.614 164.637,288.599 165.326,288.036 165.579 C 287.473 165.831,286.724 166.121,286.372 166.223 C 282.964 167.207,272.979 171.725,268.678 174.229 C 264.915 176.419,261.543 178.623,259.217 180.414 C 258.458 180.998,256.746 182.304,255.412 183.316 C 253.058 185.103,247.003 190.774,244.146 193.869 C 243.372 194.707,242.681 195.451,242.610 195.521 C 241.535 196.597,234.827 205.720,233.578 207.806 C 233.199 208.439,232.496 209.591,232.016 210.365 C 231.071 211.887,228.536 216.882,226.625 220.985 C 225.969 222.393,225.255 223.870,225.039 224.267 C 224.822 224.665,224.376 225.816,224.048 226.826 C 223.720 227.836,223.036 229.872,222.529 231.350 C 222.022 232.828,221.431 234.786,221.216 235.701 C 221.001 236.615,220.557 238.285,220.228 239.411 C 219.362 242.386,218.089 247.833,217.776 249.904 C 217.627 250.889,217.347 252.329,217.153 253.103 C 216.960 253.877,216.672 255.777,216.515 257.326 C 216.357 258.874,215.994 262.214,215.708 264.747 C 214.664 273.998,214.148 297.537,214.968 298.524 C 215.431 299.082,217.764 298.946,219.039 298.286 C 219.493 298.052,220.692 297.635,221.704 297.360 C 223.936 296.753,228.214 295.296,228.919 294.902 C 229.200 294.745,230.006 294.443,230.710 294.231 C 232.110 293.809,235.312 292.552,237.436 291.591 C 238.179 291.254,238.857 290.979,238.942 290.979 C 239.028 290.979,240.032 290.531,241.174 289.984 C 242.316 289.437,244.056 288.617,245.042 288.162 C 249.685 286.016,255.184 283.224,256.729 282.227 C 257.668 281.622,259.445 280.493,260.679 279.718 C 268.770 274.642,279.515 265.213,284.301 258.989 C 285.693 257.180,288.856 253.039,289.757 251.849 C 291.859 249.070,298.758 237.115,299.406 235.128 C 299.577 234.602,299.816 234.111,299.936 234.037 C 300.056 233.963,300.294 233.472,300.465 232.946 C 300.636 232.420,301.105 231.288,301.508 230.429 C 301.910 229.571,302.239 228.740,302.239 228.582 C 302.239 228.424,302.517 227.686,302.857 226.943 C 303.197 226.200,303.710 224.728,303.998 223.672 C 304.286 222.617,304.984 220.198,305.548 218.298 C 306.113 216.398,306.752 213.829,306.969 212.589 C 307.827 207.679,310.121 204.377,314.062 202.379 C 318.595 200.081,319.599 199.744,321.903 199.744 L 324.051 199.744 324.894 200.719 C 325.950 201.941,327.481 204.784,328.432 207.291 C 331.264 214.752,331.016 223.502,327.679 233.909 C 326.088 238.873,325.774 239.810,325.021 241.843 C 324.579 243.039,323.930 244.824,323.579 245.809 C 323.229 246.795,322.796 247.831,322.617 248.113 C 322.438 248.394,322.100 249.115,321.864 249.713 C 320.083 254.247,316.393 260.894,311.885 267.690 C 307.349 274.529,295.961 287.161,290.700 291.188 C 282.661 297.343,280.957 298.579,277.415 300.818 C 275.656 301.930,273.986 303.033,273.704 303.269 C 273.423 303.505,272.502 304.104,271.657 304.601 C 270.813 305.098,269.172 306.065,268.012 306.751 C 265.369 308.312,263.248 309.451,259.501 311.319 C 254.872 313.628,248.083 316.827,247.813 316.827 C 247.715 316.827,247.166 317.051,246.594 317.325 C 245.432 317.881,242.999 318.825,239.923 319.913 C 238.797 320.312,236.552 321.114,234.933 321.695 C 233.314 322.277,231.299 322.921,230.454 323.127 C 229.610 323.333,228.055 323.776,226.999 324.113 C 225.944 324.449,224.677 324.800,224.184 324.892 C 223.692 324.985,222.590 325.270,221.736 325.527 C 220.882 325.784,219.039 326.130,217.641 326.296 C 216.243 326.462,214.005 326.833,212.668 327.120 C 206.981 328.340,199.073 327.541,194.114 325.246 C 189.976 323.331,189.298 322.117,189.270 316.571 C 189.260 314.530,189.287 280.059,189.331 239.969 C 189.421 157.494,189.621 165.407,187.435 165.018 C 185.831 164.733,105.983 164.787,104.739 165.074 C 103.700 165.314,102.898 165.788,99.348 168.263 C 95.714 170.796,85.008 170.885,81.190 168.414 C 76.386 165.305,74.935 162.501,74.447 155.381 C 73.374 139.750,77.577 133.591,89.315 133.593 C 94.896 133.594,97.253 134.419,100.587 137.542 C 103.661 140.421,98.249 140.115,146.085 140.115 L 187.883 140.115 188.719 139.203 C 189.569 138.276,190.106 136.433,189.706 135.813 C 189.598 135.646,189.509 128.311,189.508 119.514 L 189.507 103.519 188.868 102.382 C 187.943 100.739,190.260 100.818,145.439 100.892 L 104.287 100.960 103.007 101.584 C 102.303 101.927,101.209 102.522,100.576 102.907 C 93.144 107.421,83.098 106.964,78.554 101.906 C 75.599 98.617,74.989 96.368,74.986 88.752 C 74.982 78.767,77.508 74.614,84.581 72.977 C 85.848 72.683,87.115 72.388,87.396 72.319 C 88.749 71.991,93.639 72.393,96.163 73.041 M216.334 101.202 C 214.620 101.954,214.753 98.327,214.688 146.129 C 214.640 181.197,214.692 189.626,214.959 190.125 L 215.290 190.743 216.218 189.633 C 216.729 189.022,217.377 188.143,217.658 187.680 C 222.822 179.177,238.953 162.696,248.363 156.307 C 248.929 155.923,249.835 155.290,250.376 154.900 C 252.198 153.586,254.242 152.300,256.430 151.092 C 257.626 150.431,258.893 149.696,259.245 149.459 C 262.002 147.599,270.272 144.025,276.136 142.160 C 277.191 141.824,278.746 141.320,279.591 141.039 C 280.435 140.758,282.393 140.169,283.941 139.730 C 301.801 134.670,304.656 131.069,303.858 114.617 C 303.456 106.317,301.845 104.017,294.858 101.760 L 292.386 100.962 254.766 100.903 C 223.057 100.854,217.019 100.901,216.334 101.202 " stroke="none" fill="#fbcc04" fill-rule="evenodd"></path></g></svg>